<?xml version="1.0" encoding="utf-8"?>
<!-- Generator: Adobe Illustrator 22.1.0, SVG Export Plug-In . SVG Version: 6.00 Build 0)  -->
<svg version="1.1" id="first_1" xmlns="http://www.w3.org/2000/svg" xmlns:xlink="http://www.w3.org/1999/xlink" x="0px" y="0px"
	 viewBox="0 0 189.6 98" style="enable-background:new 0 0 189.6 98;" xml:space="preserve">

<g>
	<circle class="st22" cx="98.9" cy="39" r="4.2"/>
	<circle class="st22" cx="134.5" cy="18.1" r="4.2"/>
	<g>
		<circle class="st23" cx="105.5" cy="22.5" r="6.7"/>
		<circle class="st23" cx="146.3" cy="32.8" r="6.7"/>
	</g>
	<circle class="st24" cx="124.6" cy="36.6" r="10.9"/>
	<g>
		<path class="st26" d="M52.8,22.1h-1.7c-0.3,0-0.5,0.1-0.6,0.4c-0.1,0.2-0.1,0.3-0.1,0.5v11c0,0,0,0.1-0.1,0.3
			c-0.2,0.4-0.5,0.7-0.9,0.9l-7.8,4.4V22.9c0-0.2-0.1-0.4-0.2-0.5c-0.2-0.2-0.4-0.3-0.5-0.3h-1.7c-0.3,0-0.5,0.1-0.6,0.3
			c-0.1,0.2-0.1,0.3-0.1,0.5v19.7c0,0.2,0.1,0.4,0.2,0.5c0.2,0.2,0.4,0.3,0.5,0.3h1.7c0.3,0,0.5-0.1,0.6-0.3c0-0.1,0.1-0.1,0.1-0.2
			l8-4.5l0.8-0.4v4.7c0,0.2,0.1,0.4,0.2,0.5c0.2,0.2,0.4,0.3,0.5,0.3h1.7c0.3,0,0.5-0.1,0.6-0.4c0.1-0.2,0.1-0.3,0.1-0.5V22.9
			c0-0.2-0.1-0.4-0.2-0.5C53.2,22.2,53,22.1,52.8,22.1z"/>
		<path class="st26" d="M32.8,22.5c-0.6-0.3-1.3-0.4-1.8-0.4h-3.8c0,0,0,0,0,0c-1.9,0-3.6,1.4-3.9,3.2l-3.3,17.3c0,0,0,0.1,0,0.1
			c0,0.2,0.1,0.4,0.2,0.5c0.1,0.2,0.3,0.3,0.5,0.3h1.8c0.2,0,0.5-0.1,0.6-0.4c0.1-0.1,0.1-0.3,0.1-0.4L26.4,26
			c0.1-0.5,0.6-0.9,1.1-0.9c0,0,0,0,0,0h3.1c0.4,0,0.7,0.1,0.9,0.4c0.2,0.3,0.4,0.6,0.4,1v16.2c0,0.2,0.1,0.4,0.2,0.5
			c0.2,0.2,0.4,0.3,0.5,0.3h1.7c0.2,0,0.5-0.1,0.6-0.4c0.1-0.2,0.1-0.3,0.1-0.5V26.1c0-0.7-0.2-1.5-0.6-2.1
			C34.1,23.3,33.5,22.8,32.8,22.5z"/>
		<path class="st26" d="M58.1,43.4h2.4c0.2,0,0.4-0.2,0.4-0.4l0-16.6c0-0.2,0.1-0.5,0.2-0.7c0.1-0.2,0.2-0.3,0.4-0.4
			c0.3-0.1,0.4-0.2,0.5-0.2h6c0.2,0,0.4-0.1,0.5-0.3c0.1-0.2,0.2-0.3,0.2-0.5v-1.4c0-0.4-0.2-0.6-0.4-0.7c-0.1-0.1-0.3-0.1-0.4-0.1
			h-6.4c-0.6,0-1.2,0.1-1.8,0.4c-0.7,0.3-1.2,0.8-1.6,1.5c-0.4,0.7-0.6,1.4-0.6,2.1l0,16.8C57.7,43.2,57.9,43.4,58.1,43.4z"/>
		<path class="st26" d="M74.8,43.6h7.7c1,0,1.9-0.3,2.5-0.9c0.6-0.6,0.9-1.4,0.9-2.3v-15c0-0.5-0.1-1-0.4-1.5
			c-0.2-0.5-0.7-1-1.3-1.3c-0.6-0.3-1.2-0.5-1.9-0.5h-9.1c-0.3,0-0.5,0.1-0.6,0.4c-0.1,0.2-0.1,0.3-0.1,0.5v1.4
			c0,0.2,0.1,0.4,0.2,0.5c0.2,0.2,0.4,0.3,0.5,0.3h8.1c0.9,0,1.3,0.4,1.3,1.2v2.7c0,0.6-0.1,0.8-0.2,0.8c-0.2,0.2-0.4,0.3-0.7,0.4
			l-8.4,2.3c0,0,0,0,0,0c-0.6,0.2-1.2,0.6-1.5,1.2c-0.3,0.6-0.5,1.4-0.5,2.5v4.1c0,0.5,0.1,1,0.4,1.5c0.3,0.5,0.7,0.9,1.3,1.2
			C73.5,43.4,74.1,43.6,74.8,43.6z M74.4,39.4v-2.9c0-1,0.5-1.2,0.6-1.2l6.8-1.8c0,0,0,0,0,0c0.3-0.1,0.5-0.2,0.7-0.3v6.1
			c0,0.8-0.3,1.2-1.2,1.2h-5.9c-0.4,0-0.7-0.1-0.9-0.3C74.5,40.1,74.4,39.8,74.4,39.4z"/>
		<path class="st26" d="M51.1,54.8h-1.9c-0.3,0-0.6,0.3-0.6,0.6V73h-6.8c-0.4,0-0.7-0.1-0.9-0.3c-0.2-0.2-0.3-0.5-0.3-0.8V55.4
			c0-0.3-0.3-0.6-0.6-0.6H38c-0.3,0-0.6,0.3-0.6,0.6v16.5c0,0.7,0.2,1.4,0.6,2.1c0.4,0.7,0.9,1.2,1.6,1.4c0.6,0.3,1.2,0.4,1.8,0.4
			h7.2v2.8c0,0.4-0.1,0.7-0.5,1c-0.3,0.3-0.7,0.4-1,0.4h-7.5c-0.3,0-0.6,0.2-0.7,0.5c-0.1,0.2-0.1,0.3-0.1,0.4v1.2
			c0,0.2,0.1,0.4,0.2,0.6c0.2,0.3,0.4,0.4,0.6,0.4h8c0.6,0,1.3-0.1,1.9-0.4c0.7-0.3,1.2-0.8,1.7-1.5c0.4-0.7,0.6-1.5,0.6-2.5V55.4
			C51.7,55,51.4,54.8,51.1,54.8z"/>
		<path class="st26" d="M86,54.8H84c-0.3,0-0.6,0.3-0.6,0.6V73h-6.8c-0.4,0-0.7-0.1-0.9-0.3c-0.2-0.2-0.3-0.5-0.3-0.8V55.4
			c0-0.3-0.3-0.6-0.6-0.6h-1.9c-0.3,0-0.6,0.3-0.6,0.6v16.5c0,0.7,0.2,1.4,0.6,2.1c0.4,0.7,0.9,1.2,1.6,1.4c0.6,0.3,1.2,0.4,1.8,0.4
			h7.2v2.8c0,0.4-0.1,0.7-0.5,1c-0.3,0.3-0.7,0.4-1,0.4h-7.5c-0.3,0-0.6,0.2-0.7,0.5c-0.1,0.2-0.1,0.3-0.1,0.4v1.2
			c0,0.2,0.1,0.4,0.2,0.6c0.2,0.3,0.4,0.4,0.6,0.4h8c0.6,0,1.3-0.1,1.9-0.4c0.7-0.3,1.2-0.8,1.7-1.5c0.4-0.7,0.6-1.5,0.6-2.5V55.4
			C86.6,55,86.3,54.8,86,54.8z"/>
		<path class="st26" d="M65.2,54.8h-6.3c-0.8,0-1.6,0.2-2.3,0.7c-0.7,0.5-1.2,1-1.4,1.6c-0.3,0.6-0.4,1.2-0.4,1.7v13.1
			c0,0.7,0.2,1.4,0.6,2.1c0.4,0.7,0.9,1.2,1.6,1.4c0.6,0.3,1.2,0.4,1.8,0.4H66v2.8c0,0.4-0.1,0.7-0.5,1c-0.3,0.3-0.7,0.4-1,0.4H57
			c-0.3,0-0.6,0.2-0.7,0.5c-0.1,0.2-0.1,0.3-0.1,0.4v1.2c0,0.2,0.1,0.4,0.2,0.6c0.2,0.3,0.4,0.4,0.6,0.4h8c0.6,0,1.3-0.1,1.9-0.4
			c0.7-0.3,1.2-0.8,1.7-1.5c0.4-0.7,0.6-1.5,0.6-2.5V58.7c0-1.2-0.4-2.1-1.1-2.9C67.4,55.1,66.4,54.8,65.2,54.8z M59.1,73
			c-0.4,0-0.7-0.1-0.9-0.3c-0.2-0.2-0.3-0.5-0.3-0.8V58.9c0-0.4,0.1-0.6,0.3-0.8c0.2-0.2,0.5-0.3,0.9-0.3h5.7c0.4,0,0.7,0.1,0.8,0.3
			c0.2,0.2,0.3,0.4,0.3,0.8V73H59.1z"/>
		<path class="st26" d="M147.5,55.1C147.5,55.1,147.5,55.1,147.5,55.1c-0.1-0.1-0.3-0.1-0.4-0.1h-6.3c-0.6,0-1.2,0.1-1.8,0.4
			c-0.7,0.3-1.2,0.8-1.6,1.5c-0.4,0.7-0.6,1.4-0.6,2.1l0,16.7c0,0.2,0.2,0.4,0.4,0.4h2.4c0.2,0,0.4-0.2,0.4-0.4l0-16.4
			c0-0.2,0.1-0.5,0.2-0.7c0.1-0.2,0.2-0.3,0.4-0.4c0.3-0.1,0.4-0.2,0.5-0.2h6c0.2,0,0.4-0.1,0.5-0.3c0.1-0.2,0.2-0.3,0.2-0.5v-1.4
			C147.8,55.3,147.6,55.1,147.5,55.1z"/>
		<path class="st26" d="M115.4,72.9h-2.3c-0.1,0-0.2,0-0.5-0.2c-0.2-0.1-0.3-0.2-0.4-0.4c-0.1-0.2-0.1-0.3-0.1-0.5l0-16.1
			c0-0.2-0.2-0.4-0.4-0.4h-2.3c-0.2,0-0.4,0.2-0.4,0.4l0,16.1c0,0.2-0.1,0.4-0.1,0.5c-0.1,0.2-0.2,0.3-0.4,0.4
			c-0.2,0.1-0.4,0.2-0.5,0.2h-4.3c-0.1,0-0.2,0-0.5-0.2c-0.2-0.1-0.3-0.2-0.4-0.4c-0.1-0.2-0.1-0.3-0.1-0.5l0-16.1
			c0-0.2-0.2-0.4-0.4-0.4h-2.3c-0.2,0-0.4,0.2-0.4,0.4l0,16.1c0,0.2-0.1,0.4-0.1,0.5c-0.1,0.2-0.2,0.3-0.4,0.4
			c-0.2,0.1-0.4,0.2-0.5,0.2H94c-0.1,0-0.2,0-0.5-0.2c-0.2-0.1-0.3-0.2-0.4-0.4C93,72.2,93,72,93,71.7l0-16c0-0.2-0.2-0.4-0.4-0.4
			h-2.3c-0.2,0-0.4,0.2-0.4,0.4l0,16.3c0,0.7,0.2,1.4,0.6,2.1c0.4,0.7,0.9,1.1,1.6,1.4c0.6,0.3,1.2,0.4,1.8,0.4h4.8
			c0.6,0,1.2-0.1,1.8-0.4c0.2-0.1,0.4-0.2,0.6-0.3c0.2,0.1,0.4,0.2,0.6,0.3c0.6,0.3,1.2,0.4,1.8,0.4h5c0.6,0,1.2-0.1,1.8-0.4
			c0.2-0.1,0.4-0.2,0.6-0.3c0.2,0.1,0.4,0.2,0.6,0.3c0.6,0.3,1.2,0.4,1.8,0.4h2.7c0.1,0,0.2,0,0.4-0.1c0.1-0.1,0.3-0.3,0.3-0.7v-1.4
			c0-0.2-0.1-0.4-0.2-0.5C115.8,73,115.6,72.9,115.4,72.9z"/>
		<path class="st26" d="M32.1,55.2c-0.6-0.3-1.2-0.4-1.8-0.4h-7.2V52c0-0.4,0.1-0.7,0.5-1c0.3-0.3,0.7-0.4,1-0.4h7.5
			c0.3,0,0.6-0.2,0.7-0.5c0.1-0.2,0.1-0.3,0.1-0.4v-1.2c0-0.2-0.1-0.4-0.2-0.6c-0.2-0.3-0.4-0.4-0.6-0.4h-8c-0.6,0-1.3,0.1-1.9,0.4
			c-0.7,0.3-1.2,0.8-1.7,1.5c-0.4,0.7-0.6,1.5-0.6,2.5v19.9c0,1.2,0.4,2.1,1.1,2.9c0.7,0.7,1.7,1.1,2.9,1.1h6.3
			c0.8,0,1.6-0.2,2.3-0.7c0.7-0.5,1.2-1,1.4-1.6c0.3-0.6,0.4-1.2,0.4-1.7V58.8c0-0.7-0.2-1.4-0.6-2.1C33.2,56,32.7,55.5,32.1,55.2z
			 M23.1,57.7h6.8c0.4,0,0.7,0.1,0.9,0.3c0.2,0.2,0.3,0.5,0.3,0.8v12.9c0,0.4-0.1,0.6-0.3,0.8c-0.2,0.2-0.5,0.3-0.9,0.3h-5.7
			c-0.4,0-0.7-0.1-0.8-0.3c-0.2-0.2-0.3-0.4-0.3-0.8V57.7z"/>
		<path class="st26" d="M132,55.1c-0.6-0.3-1.2-0.4-1.8-0.4h-7.6c-1,0-1.8,0.3-2.4,0.9c-0.6,0.6-0.9,1.4-0.9,2.3v14.7
			c0,0.5,0.1,1,0.4,1.5c0.2,0.5,0.7,0.9,1.2,1.3c0.6,0.3,1.2,0.5,1.8,0.5h9c0.3,0,0.5-0.1,0.6-0.3c0.1-0.2,0.1-0.3,0.1-0.5v-1.3
			c0-0.2-0.1-0.4-0.2-0.5c-0.1-0.2-0.3-0.3-0.5-0.3h-8c-0.9,0-1.2-0.3-1.2-1.2V69c0-0.5,0.1-0.8,0.2-0.8c0.2-0.2,0.4-0.3,0.7-0.4
			l8.3-2.2c0,0,0,0,0,0c0.6-0.2,1.1-0.6,1.5-1.2c0.3-0.6,0.5-1.4,0.5-2.4v-4c0-0.5-0.1-1-0.4-1.5C133,55.8,132.6,55.4,132,55.1z
			 M130.5,58.8v2.9c0,1-0.5,1.1-0.6,1.2l-6.7,1.8c0,0,0,0,0,0c-0.3,0.1-0.5,0.2-0.7,0.3v-6c0-0.8,0.3-1.1,1.1-1.1h5.8
			c0.4,0,0.6,0.1,0.9,0.3C130.4,58.2,130.5,58.4,130.5,58.8z"/>
		<path class="st26" d="M165.2,56.7C165.2,56.7,165.2,56.7,165.2,56.7c-0.5-0.7-1.1-1.2-1.7-1.5c-0.6-0.3-1.2-0.4-1.6-0.4h-7
			c-0.8,0-1.5,0.2-2.2,0.7c-0.7,0.5-1.2,1-1.4,1.7c-0.3,0.6-0.4,1.2-0.4,1.7v13c0,0.8,0.2,1.5,0.6,2.2c0.4,0.7,0.9,1.2,1.6,1.5
			c0.6,0.3,1.2,0.4,1.8,0.4h7.2c0.6,0,1.2-0.1,1.8-0.4c0.6-0.3,1.1-0.8,1.5-1.5c0.4-0.7,0.6-1.4,0.6-2.1v-13
			C166,58.1,165.7,57.4,165.2,56.7z M162.8,59v12.7c0,0.4-0.1,0.6-0.3,0.9c-0.2,0.2-0.5,0.3-0.9,0.3h-6.3c-0.4,0-0.7-0.1-0.9-0.3
			c-0.2-0.2-0.3-0.5-0.3-0.9V59c0-0.4,0.1-0.7,0.3-0.9c0.2-0.2,0.5-0.3,0.9-0.3h6.3c0.4,0,0.7,0.1,0.9,0.4
			C162.7,58.4,162.8,58.7,162.8,59z"/>
	</g>
</g>
</svg>
